<?xml version="1.0" standalone="no"?>
<!DOCTYPE svg PUBLIC "-//W3C//DTD SVG 1.1//EN" "http://www.w3.org/Graphics/SVG/1.1/DTD/svg11.dtd" >
<!--
2013-9-30: Created.
-->
<svg>
<metadata>
Created by iconfont
</metadata>
<defs>

<font id="iconfont" horiz-adv-x="1024" >
  <font-face
    font-family="iconfont"
    font-weight="500"
    font-stretch="normal"
    units-per-em="1024"
    ascent="896"
    descent="-128"
  />
    <missing-glyph />
    
    <glyph glyph-name="bofang5" unicode="&#58909;" d="M371.571862 15.794718999999986L371.571862 15.794718999999986 775.924433 346.88470400000006C803.306549 369.30559400000004 803.359491 405.770672 775.924433 428.234912L371.571862 759.324896C344.189747 781.745786 321.896298 771.328051 321.896298 735.959411L321.896298 39.16020500000002C321.896298 3.51386500000001 344.136806-6.669521000000032 371.571862 15.794718999999986L371.571862 15.794718999999986ZM412.117862-33.72317599999997L412.117862-33.72317599999997C342.998042-90.31952899999999 257.896298-50.619538000000034 257.896298 39.16020500000002L257.896298 735.959411C257.896298 825.441344 343.036778 865.407427 412.117862 808.84279L816.470433 477.752806C875.16997 429.688739 875.132094 345.399862 816.470433 297.36681L412.117862-33.72317599999997Z"  horiz-adv-x="1024" />

    
    <glyph glyph-name="bofang4" unicode="&#58953;" d="M512 384m-512 0a512 512 0 1 1 1024 0 512 512 0 1 1-1024 0ZM426.356364 596.042473l253.728581-198.171928c5.175855-4.040145 6.795636-12.641745 3.611928-19.213963a13.163055 13.163055 0 0 0-3.611928-4.598691L426.356364 175.88596399999994c-5.175855-4.040145-11.952873-1.992145-15.136582 4.580072a16.979782 16.979782 0 0 0-1.619782 7.316946V584.1454550000001c0 7.726545 4.933818 13.963636 11.003345 13.963636 2.029382 0 4.040145-0.726109 5.753019-2.066618z"  horiz-adv-x="1024" />

    
    <glyph glyph-name="caidan1" unicode="&#58921;" d="M483.883 412.242H184.58c-60.681 0-110.05 49.368-110.05 110.05V711.544c0 60.681 49.368 110.05 110.05 110.05h189.252c60.681 0 110.05-49.368 110.05-110.05v-299.302zM184.58 781.576c-38.615 0-70.031-31.417-70.031-70.031v-189.253c0-38.615 31.416-70.031 70.03-70.031h259.284V711.544c0 38.614-31.416 70.03-70.03 70.03H184.58zM840.875 412.242H539.62V711.544c0 60.681 49.367 110.05 110.05 110.05h191.206c60.681 0 110.05-49.368 110.05-110.05V522.29c0-60.681-49.369-110.049-110.05-110.049zM579.636 452.26h261.24c38.614 0 70.03 31.416 70.03 70.03V711.545c0 38.614-31.416 70.03-70.03 70.03H649.666c-38.615 0-70.03-31.416-70.03-70.03V452.26zM373.834-54.799H184.581c-60.681 0-110.05 49.368-110.05 110.05V246.458c0 60.681 49.368 110.05 110.05 110.05h299.302V55.25c0-60.681-49.368-110.05-110.049-110.05z m-189.253 371.29c-38.615 0-70.031-31.417-70.031-70.032v-191.208c0-38.615 31.416-70.031 70.03-70.031h189.253c38.615 0 70.031 31.416 70.031 70.03V316.49H184.581zM840.875-54.799H649.667c-60.68 0-110.049 49.368-110.049 110.05V356.508h301.257c60.681 0 110.05-49.368 110.05-110.05V55.25c0-60.68-49.369-110.049-110.05-110.049z m-261.239 371.29v-261.24c0-38.615 31.416-70.031 70.031-70.031h191.208c38.615 0 70.031 31.416 70.031 70.03V246.459c0 38.615-31.416 70.031-70.03 70.031h-261.24z"  horiz-adv-x="1024" />

    
    <glyph glyph-name="sousuo" unicode="&#58915;" d="M981.876-49.66700000000003L739.718 205.01599999999996c60.54 64.714 96.028 154.48 98.116 254.683 6.263 233.807-171.18 421.688-402.9 427.95S13.245 716.47 6.983 484.75 178.163 63.061000000000035 411.97 56.799999999999955c100.204-2.088 192.057 27.138 260.946 83.502l240.07-254.683c16.7-16.7 41.752-18.788 58.452-2.088 16.7 16.701 18.788 48.014 10.438 66.803zM414.058 140.29999999999995c-183.706 4.175-329.835 158.655-323.573 342.36S249.14 810.41 432.846 804.148s327.748-158.655 321.485-340.273S595.676 134.038 414.058 140.29999999999995z"  horiz-adv-x="1024" />

    
    <glyph glyph-name="bofang3" unicode="&#58902;" d="M185.8-44.10000000000002c-5 0-10 0.4-15 1.2-45.1 6.2-51.2 71.6-52 84.7V711c-0.5 10.5-2 73.9 36.3 100.5 14.3 9.9 39.3 18.3 77.2 1.5l1.1-0.5 82.4-41.2 554.9-296.2c18.1-7.9 47.9-31.6 51.6-74.6 4.8-41.5-40.4-71.5-45.6-74.8l-1.1-0.7-596-337.3c-8.1-5.3-50.9-31.8-93.8-31.8Zm-6.6 50.5c25.4-3.8 62.4 16.2 73.5 23.5l0.8 0.5 0.8 0.5 596.2 337.3c10.7 7.1 23 20.7 22.3 26.7l-0.1 1c-2.1 24.8-21.7 33.4-21.9 33.4l-1.3 0.5L292.6 727l-81 40.5c-7.7 3.3-21 7.8-28 2.9-12.4-8.6-15.8-41.5-14.9-57.3V44c1.2-14.8 6.2-32.9 10.5-37.6Z"  horiz-adv-x="1024" />

    
    <glyph glyph-name="toggle" unicode="&#58894;" d="M832.2 631.4H192.3c-35.2 0-64 28.8-64 64s28.8 64 64 64h639.8c35.2 0 64-28.8 64-64 0.1-35.2-28.7-64-63.9-64zM832.2 318.1H196.1c-35.2 0-64 28.8-64 64s28.8 64 64 64h636.1c35.2 0 64-28.8 64-64s-28.8-64-64-64zM832.2-0.8999999999999773H192.3c-35.2 0-64 28.8-64 64s28.8 64 64 64h639.8c35.2 0 64-28.8 64-64 0.1-35.2-28.7-64-63.9-64z"  horiz-adv-x="1024" />

    
    <glyph glyph-name="zan" unicode="&#58892;" d="M931.84 561.46c-39.936 10.444-133.837 10.24-271.258 13.926 6.554 30.003 7.988 57.036 7.988 104.96C668.672 795.034 585.114 896 511.18 896c-52.223 0-95.231-42.7-95.846-95.13-0.716-64.307-20.48-175.41-127.795-231.833-7.885-4.096-30.31-15.155-33.587-16.691l1.638-1.434a101.376 101.376 0 0 1-63.897 25.6H95.846A95.949 95.949 0 0 1 0 480.666V-30.720000000000027c0-52.838 43.008-95.846 95.846-95.846h95.847a94.72 94.72 0 0 1 85.299 55.193l1.434-0.41 7.68-2.047c0.512 0 0.819-0.103 1.433-0.308 18.432-4.608 53.863-13.004 129.536-30.412 16.384-3.687 101.99-22.016 190.874-22.016h174.694c53.248 0 92.672 19.865 114.381 61.644 21.3 37.07 125.542 236.032 125.44 516.506 0 40.346-27.955 91.853-90.624 109.773zM223.642-30.720000000000027c0-17.613-14.336-31.949-31.95-31.949H95.847a31.949 31.949 0 0 0-31.948 31.949V480.666c0 17.612 14.336 31.948 31.948 31.948h95.847c17.715 0 31.949-14.336 31.949-31.948V-30.720000000000027zM957.85 431.514c-13.312-321.024-117.146-466.33-117.146-466.33-9.728-17.408-25.19-27.853-58.163-27.853H607.949c-87.757 0-174.797 19.866-177.05 20.48-132.71 30.515-139.673 32.87-147.968 35.226l4.608 469.504c0 48.537 1.024 36.25 0 35.635C433.562 558.592 478.003 691.2 479.232 800.051A32.051 32.051 0 0 0 511.181 832c33.792 0 93.491-67.789 93.491-151.757 0-75.776-3.072-88.78-29.594-167.731 319.488 0 317.338-4.608 345.498-11.98 35.02-10.036 37.888-38.913 37.888-48.948 0-10.957-0.205-9.42-0.614-20.07z"  horiz-adv-x="1024" />

    
    <glyph glyph-name="bofang2" unicode="&#58946;" d="M512.1 832c-247.4 0-448-200.6-448-448s200.6-448 448-448 448 200.6 448 448-200.6 448-448 448z m288.5-736.5c-37.5-37.5-81.1-66.9-129.7-87.5-50.3-21.3-103.7-32-158.8-32s-108.5 10.8-158.8 32c-48.6 20.5-92.2 50-129.7 87.5s-66.9 81.1-87.5 129.7c-21.3 50.3-32 103.7-32 158.8s10.8 108.5 32 158.8c20.5 48.6 50 92.2 87.5 129.7s81.1 66.9 129.7 87.5c50.3 21.3 103.7 32 158.8 32s108.5-10.8 158.8-32c48.6-20.5 92.2-50 129.7-87.5s66.9-81.1 87.5-129.7c21.3-50.3 32-103.7 32-158.8s-10.8-108.5-32-158.8c-20.6-48.6-50-92.2-87.5-129.7zM672.7 399.3L424.8 552.7c-3 1.9-6.3 2.7-9.4 2.7-9.4 0-18-7.5-18-18v-306.9c0-10.5 8.7-18 18-18 3.2 0 6.4 0.9 9.4 2.7l247.9 153.4c11.4 7.1 11.4 23.7 0 30.7zM437.3 270V498l184.1-114-184.1-114z"  horiz-adv-x="1024" />

    
    <glyph glyph-name="bofang1" unicode="&#58885;" d="M911.924461 314.296519l-718.992232-430.663912C141.000949-149.208442 73.124571-108.248559 73.124571-46.66245V814.665375C73.124571 876.178342 141.000949 917.211368 192.932229 884.370319l718.992232-430.663912c51.93128-28.671918 51.93128-110.737969 0-139.409888z"  horiz-adv-x="1024" />

    
    <glyph glyph-name="rili" unicode="&#59180;" d="M716.8 691.2h102.7072A102.4 102.4 0 0 0 921.6 588.4928v-511.3856A102.4512 102.4512 0 0 0 819.5072-25.6H204.4928A102.4 102.4 0 0 0 102.4 77.1072V588.4928C102.4 645.2224 148.224 691.2 204.4928 691.2H307.2V768.512A25.6 25.6 0 0 0 332.8 793.6c14.1312 0 25.6-11.008 25.6-25.088V691.2h307.2V768.512a25.6 25.6 0 0 0 25.6 25.088c14.1312 0 25.6-11.008 25.6-25.088V691.2z m-51.2-51.2H358.4v-26.112a25.6 25.6 0 0 0-25.6-25.088 25.1904 25.1904 0 0 0-25.6 25.088V640H204.4928C176.4864 640 153.6 616.96 153.6 588.4928v-511.3856A51.2 51.2 0 0 1 204.4928 25.6h615.0144c28.0064 0 50.8928 23.04 50.8928 51.5072V588.4928A51.2 51.2 0 0 1 819.5072 640H716.8v-26.112a25.6 25.6 0 0 0-25.6-25.088 25.1904 25.1904 0 0 0-25.6 25.088V640zM153.6 537.6h716.8v-51.2H153.6V537.6z m254.976-409.6h-35.9936v229.376c-8.6528-8.2432-19.968-16.4864-34.0992-24.7808a241.7152 241.7152 0 0 0-37.888-18.5856v34.816a217.3952 217.3952 0 0 1 52.7872 34.3552c15.104 13.4656 25.7536 26.5728 32 39.2192h23.1936V128z m289.2288 34.6112V128H503.9616c-0.256 8.704 1.1776 16.9984 4.1984 24.9856 4.9664 13.2096 12.8512 26.2144 23.7056 39.0144 10.9056 12.8 26.624 27.648 47.104 44.3904 31.8976 26.112 53.4016 46.848 64.6144 62.1056 11.2128 15.2576 16.7936 29.696 16.7936 43.3152a48.128 48.128 0 0 1-15.3088 36.096c-10.1888 9.7792-23.5008 14.6944-39.8848 14.6944-17.3568 0-31.232-5.2224-41.6256-15.616-10.3936-10.3936-15.6672-24.7808-15.7696-43.1616l-37.0176 3.7888c2.56 27.5968 12.0832 48.64 28.6208 63.0784 16.5376 14.4896 38.7072 21.7088 66.56 21.7088 28.16 0 50.432-7.7824 66.816-23.3984 16.384-15.616 24.576-34.9184 24.576-58.0096 0-11.7248-2.3552-23.2448-7.168-34.6112-4.8128-11.3152-12.8-23.2448-23.9104-35.7888-11.1104-12.544-29.5936-29.696-55.5008-51.6096-21.6064-18.1248-35.4304-30.4128-41.5744-36.864-6.144-6.5024-11.2128-13.0048-15.2064-19.5072h143.8208z"  horiz-adv-x="1024" />

    
    <glyph glyph-name="zuojiantou" unicode="&#58893;" d="M948.09088 403.34336l-825.66656 0 323.37408 323.35872a18.85696 18.85696 0 0 1-0.04096 26.77248 18.96448 18.96448 0 0 1-26.88512-0.07679999l-353.24416-353.44896001c-5.15584-3.39968-8.73984-8.95488-8.73984-15.56992 0-4.72576 1.8944-8.87296 4.72064-12.19584l-0.16896001-0.22528 0.98304-0.98304 0.06144001-0.05632 356.42368-356.4288c7.30112-7.30112 19.42016-7.41376 26.83392-0.02048001a18.88768 18.88768 0 0 1 0.03584 26.77760001l-324.15232 324.16768L948.09088 365.4144a18.944 18.944 0 0 1 19.0208 18.96448 18.944 18.944 0 0 1-19.0208 18.96448z"  horiz-adv-x="1024" />

    
    <glyph glyph-name="diantai" unicode="&#58989;" d="M258.844444 253.15555600000005C238.933333 292.97777799999994 227.555556 338.488889 227.555556 384c0 156.444444 128 284.444444 284.444444 284.444444s284.444444-128 284.444444-284.444444c0-110.933333-62.577778-207.644444-156.444444-253.155556-11.377778-2.844444-19.911111-14.222222-19.911111-25.6 0-17.066667 11.377778-28.444444 28.444444-28.444444 5.688889 0 8.533333 0 11.377778 2.844444 113.777778 56.888889 190.577778 170.666667 190.577778 307.2 0 187.733333-153.6 341.333333-341.333333 341.333334S170.666667 571.733333 170.666667 384c0-56.888889 14.222222-108.088889 36.977777-156.444444 0 0 0-2.844444 2.844445-2.844445 0 0 0-2.844444 2.844444-2.844444 5.688889-5.688889 14.222222-11.377778 22.755556-11.377778 17.066667 0 28.444444 11.377778 28.444444 28.444444-2.844444 5.688889-2.844444 11.377778-5.688889 14.222223zM512 839.111111C261.688889 839.111111 56.888889 634.311111 56.888889 384c0-91.022222 25.6-176.355556 73.955555-247.466667 5.688889-8.533333 14.222222-11.377778 22.755556-11.377777 17.066667 0 28.444444 11.377778 28.444444 28.444444 0 5.688889-2.844444 14.222222-5.688888 17.066667C136.533333 233.24444400000004 113.777778 304.355556 113.777778 384c0 219.022222 179.2 398.222222 398.222222 398.222222s398.222222-179.2 398.222222-398.222222c0-190.577778-133.688889-347.022222-310.044444-389.688889-14.222222-2.844444-25.6-14.222222-25.6-28.444444 0-17.066667 11.377778-28.444444 28.444444-28.444445h5.688889C813.511111-14.222221999999988 967.111111 167.822222 967.111111 384c0 250.311111-204.8 455.111111-455.111111 455.111111zM676.977778 372.62222199999997c11.377778 0 17.066667 68.266667-45.511111 91.022222-39.822222 14.222222-71.111111 36.977778-93.866667 73.955556-2.844444 11.377778-14.222222 17.066667-25.6 17.066667-17.066667 0-28.444444-11.377778-28.444444-28.444445v-304.355555c-2.844444-14.222222-19.911111-25.6-34.133334-19.911111h-5.688889c-22.755556 2.844444-48.355556 2.844444-73.955555-2.844445-76.8-19.911111-125.155556-85.333333-108.088889-147.911111s91.022222-93.866667 167.822222-73.955556c68.266667 17.066667 113.777778 73.955556 110.933333 128V420.977778c0 2.844444 0 5.688889 2.844445 8.533333 5.688889 8.533333 17.066667 14.222222 25.6 8.533333 28.444444-14.222222 42.666667-5.688889 71.111111-19.911111 28.444444-14.222222 25.6-45.511111 36.977778-45.511111z"  horiz-adv-x="1024" />

    
    <glyph glyph-name="paihangbang" unicode="&#58937;" d="M939.264-33.792H837.12c-16.384 0-32 6.4-43.52 17.92s-17.92 27.136-17.92 43.52V335.616c0 16.384 6.4 32 17.92 43.52s27.136 17.92 43.52 17.92h102.144c16.384 0 32-6.4 43.52-17.92s17.92-27.136 17.92-43.52v-307.968c0.256-33.792-27.392-61.44-61.44-61.44z m-370.944 0h-102.144c-16.384 0-32 6.4-43.52 17.92s-17.92 27.136-17.92 43.52V766.72c0 34.048 27.648 61.696 61.696 61.696H568.32c16.384 0 32-6.4 43.52-17.92s17.92-27.136 17.92-43.52v-739.072c0.256-34.048-27.392-61.696-61.44-61.696z m-381.696 0H84.736c-16.384 0-32 6.4-43.52 17.92s-17.92 27.136-17.92 43.52V518.912c0 16.384 6.4 32 17.92 43.52s27.136 17.92 43.52 17.92H186.88c16.384 0 32-6.4 43.52-17.92s17.92-27.136 17.92-43.52v-491.008c0-16.384-6.4-32-17.92-43.52-11.776-11.776-27.392-18.176-43.776-18.176z m0 0"  horiz-adv-x="1024" />

    
    <glyph glyph-name="zhibo" unicode="&#58890;" d="M909.312 414.72c-26.624 12.288-59.392 8.192-83.968-10.24l-49.152-36.864v53.248c0 73.728-59.392 133.12-133.12 133.12H208.896c-73.728 0-133.12-59.392-133.12-133.12v-319.488c0-73.728 59.392-133.12 133.12-133.12h432.128c73.728 0 133.12 59.392 133.12 133.12v6.144l49.152-36.864c26.624-20.48 57.344-24.576 83.968-10.24 24.576 12.288 38.912 36.864 38.912 67.584V347.13599999999997c2.048 30.72-12.288 55.296-36.864 67.584z m-2.048-290.816c0-14.336-6.144-24.576-16.384-30.72-12.288-6.144-28.672-4.096-40.96 6.144l-81.92 63.488c-6.144 4.096-14.336 6.144-22.528 2.048-6.144-4.096-12.288-10.24-12.288-18.432v-47.104c0-51.2-40.96-92.16-92.16-92.16H208.896c-51.2 0-92.16 40.96-92.16 92.16V418.816c0 51.2 40.96 92.16 92.16 92.16h432.128c51.2 0 92.16-40.96 92.16-92.16v-94.208c0-8.192 4.096-14.336 12.288-18.432 6.144-4.096 14.336-2.048 22.528 2.048l81.92 63.488c12.288 10.24 28.672 12.288 40.96 6.144 10.24-6.144 16.384-16.384 16.384-30.72v-223.232zM309.248 582.656c45.056 0 79.872 34.816 79.872 79.872s-36.864 79.872-79.872 79.872-79.872-34.816-79.872-79.872 36.864-79.872 79.872-79.872z m0 118.784c22.528 0 38.912-16.384 38.912-38.912s-18.432-38.912-38.912-38.912-38.912 16.384-38.912 38.912 18.432 38.912 38.912 38.912zM249.856 449.536c-43.008 0-77.824-34.816-77.824-75.776 0-43.008 34.816-75.776 77.824-75.776s77.824 34.816 77.824 75.776c0 43.008-34.816 75.776-77.824 75.776z m0-110.592c-20.48 0-36.864 16.384-36.864 34.816s16.384 34.816 36.864 34.816 36.864-16.384 36.864-34.816-16.384-34.816-36.864-34.816zM583.68 580.608c61.44 0 110.592 49.152 110.592 110.592s-49.152 110.592-110.592 110.592c-61.44 0-110.592-49.152-110.592-110.592s49.152-110.592 110.592-110.592z m0 178.176c38.912 0 69.632-30.72 69.632-69.632s-30.72-69.632-69.632-69.632-69.632 30.72-69.632 69.632 30.72 69.632 69.632 69.632z"  horiz-adv-x="1024" />

    
    <glyph glyph-name="gedan" unicode="&#58891;" d="M964.608 661.504c-46.08 52.565333-104.789333 93.696-169.642667 118.784a34.030933 34.030933 0 0 1-46.421333-31.744v-420.352a178.005333 178.005333 0 0 1-110.933333 38.741333c-98.816 0-179.2-80.384-179.2-179.2S538.794667 8.53333299999997 637.610667 8.53333299999997s179.2 80.384 179.2 179.2c0 1.877333-0.170667 3.754667-0.341334 5.632 0 1.024 0.341333 1.877333 0.341334 2.901334V694.784c36.181333-20.309333 69.12-46.933333 96.597333-78.165333 12.458667-14.165333 34.133333-15.530667 48.128-3.072 14.165333 12.288 15.530667 33.792 3.072 47.957333zM637.610667 76.79999999999995c-61.098667 0-110.933333 49.834667-110.933334 110.933333s49.834667 110.933333 110.933334 110.933334 110.933333-49.834667 110.933333-110.933334-49.834667-110.933333-110.933333-110.933333zM185.344 588.8h392.533333c18.773333 0 34.133333 15.36 34.133334 34.133333s-15.36 34.133333-34.133334 34.133334h-392.533333a34.133333 34.133333 0 1 1 0-68.266667zM424.277333 435.2h-238.933333c-18.773333 0-34.133333-15.36-34.133333-34.133333s15.36-34.133333 34.133333-34.133334h238.933333c18.773333 0 34.133333 15.36 34.133334 34.133334s-15.36 34.133333-34.133334 34.133333zM321.877333 213.33333300000004h-136.533333c-18.773333 0-34.133333-15.36-34.133333-34.133333s15.36-34.133333 34.133333-34.133333h136.533333c18.773333 0 34.133333 15.36 34.133334 34.133333s-15.36 34.133333-34.133334 34.133333z"  horiz-adv-x="1024" />

    
    <glyph glyph-name="mv" unicode="&#58984;" d="M511.997 793.598c-148.377 0-280.025-16.663-359.999-28.798C85.899 754.763 32.935 703.804 20.8 635.197 10.407 576.778 0 491.01 0 384c0-106.957 10.407-192.78 20.8-251.203C32.988 64.19000000000005 85.899 13.183999999999969 151.998 3.2000000000000455c80.232-12.135 212.443-28.798 359.999-28.798 147.562 0 279.719 16.663 359.999 28.798 66.153 9.984 119.068 60.943 131.203 129.597C1013.54 191.26800000000003 1024 277.30100000000004 1024 384c0 106.752-10.407 192.726-20.8 251.197-12.135 68.607-65.104 119.566-131.203 129.603-79.975 12.135-211.67 28.798-360 28.798z m0-80.513c144.962 0 274.703-12.096 353.08-23.997 33.733-5.103 59.045-32.295 65.135-66.847 9.76-54.847 20.561-135.679 20.561-238.242 0-102.512-10.858-183.395-20.561-238.242-6.146-34.61-31.346-61.743-65.135-66.847-78.704-11.9-208.997-23.997-353.08-23.997-144.133 0-274.426 12.096-353.074 23.997-33.733 5.103-60.704 32.293-66.848 66.847C82.365 200.49300000000005 73.22 281.16099999999994 73.22 384c0 102.895 9.145 183.507 18.855 238.242 6.145 34.552 33.116 61.743 66.848 66.847 78.371 11.9 208.112 23.996 353.074 23.996zM358.4 588.796v-409.598L716.799 384 358.4 588.796z m0 0"  horiz-adv-x="1024" />

    
    <glyph glyph-name="more" unicode="&#58889;" d="M592.22614725-112.39158089a94.83263398 94.83263398 0 1 1 0 194.08607212 94.83263398 94.83263398 0 1 1 0-194.08607212zM592.22614725 287.33123521000005a94.83263398 94.83263398 0 1 1 0 194.08607211 94.83263398 94.83263398 0 1 1 0-194.08607211z m0 399.72391688a94.83263398 94.83263398 0 1 1 0 194.08497134 94.83263398 94.83263398 0 1 1 0-194.08497134z"  horiz-adv-x="1152" />

    
    <glyph glyph-name="hongxin" unicode="&#58941;" d="M512.791016 651.06194C483.006665 697.103556 413.928381 783.983275 317.474608 783.983275c-138.414443 0-250.997568-124.694977-250.997568-278.017968 0-71.681576 48.643883-174.431751 107.666138-228.217748 81.641415-104.903212 311.144436-293.729811 339.481831-293.729811 28.852118 0 253.439176 185.163163 336.558246 292.476261 60.050678 54.68446 108.919688 157.596318 108.919688 229.470275 0 153.322991-112.582101 278.017968-250.997568 278.017968C611.653651 783.983275 542.575366 697.103556 512.791016 651.06194L512.791016 651.06194zM539.522844 577.870987c34.764781 73.127508 100.373035 146.929374 168.58458 146.929374 105.770975 0 191.814654-98.156554 191.814654-218.835054 0-57.351196-41.575908-142.912897-90.766236-186.8025-1.349741-1.220804-2.570545-2.537799-3.791349-4.048199-73.15923-95.329159-220.409922-213.469859-291.576775-265.295202-52.885488 38.71679-212.216309 159.363568-294.019407 265.680988-1.092891 1.445932-2.37714 2.827395-3.726881 4.080945-48.997947 43.825135-90.38045 129.161708-90.38045 186.383968 0 120.679523 86.043678 218.835054 191.814654 218.835054 68.178799 0 133.819798-73.801866 168.616302-146.929374 4.626367-9.702989 14.84408-15.711843 26.700105-15.711843C524.647041 562.159144 534.896476 568.167998 539.522844 577.870987L539.522844 577.870987z"  horiz-adv-x="1024" />

    
    <glyph glyph-name="gengduo1" unicode="&#58958;" d="M508.185114 838.019471c-248.092401 0-449.208908-201.118554-449.208908-449.208908 0-248.092401 201.116507-449.210955 449.208908-449.210955 248.090355 0 449.208908 201.118554 449.208908 449.210955C957.394023 636.9009169999999 756.275469 838.019471 508.185114 838.019471zM508.185114-4.246464999999944c-217.080084 0-393.057027 175.976944-393.057027 393.057027S291.105031 781.865543 508.185114 781.865543c217.078037 0 393.058051-175.974897 393.058051-393.054981S725.263152-4.246464999999944 508.185114-4.246464999999944zM283.58066 444.959374c-31.012318 0-56.150858-25.136493-56.150858-56.147788s25.13854-56.150858 56.150858-56.150858 56.150858 25.13854 56.150858 56.150858S314.592978 444.959374 283.58066 444.959374zM508.185114 444.959374c-31.012318 0-56.150858-25.136493-56.150858-56.147788s25.13854-56.150858 56.150858-56.150858 56.151881 25.13854 56.151881 56.150858S539.197432 444.959374 508.185114 444.959374zM732.790592 444.959374c-31.012318 0-56.150858-25.136493-56.150858-56.147788s25.13854-56.150858 56.150858-56.150858c31.012318 0 56.150858 25.13854 56.150858 56.150858S763.80291 444.959374 732.790592 444.959374z"  horiz-adv-x="1024" />

    
    <glyph glyph-name="lingsheng" unicode="&#59063;" d="M916.5 608.9c27.2 24.2 42.7 58.8 42.7 95.2 0 70.2-57.1 127.3-127.3 127.3-35.9 0-70.3-15.3-94.4-41.9-2.2-2.5-3.6-5.4-4.3-8.4-31 11.1-64 17-97.8 17.2h-1.6c-77 0-149.7-29.6-204.8-83.5-0.8-0.7-146.6-146.6-181.3-181.2-20.4 17.5-46.1 26.9-73.2 26.7-29.4-0.2-57-11.8-77.7-32.6S64.5 479.3 64.2 450c-0.2-29.3 10.8-57.1 31.2-78.2l84.7-84.7c-22.8-29.5-34.8-64.8-34.8-102.2 0-92.3 75.1-167.4 167.4-167.4 37.4 0 72.7 12 102.2 34.8l83.4-83.4c21.7-21.7 50.2-32.5 78.6-32.5s57 10.8 78.6 32.5c21 21 32.6 48.9 32.6 78.6 0 26.8-9.4 52.2-26.7 72.3 34.7 34.7 180.5 180.5 181.2 181.3 54.3 55.5 84 128.7 83.9 206-0.1 33.9-5.9 66.9-17.1 97.9 2.6 0.7 5 2 7.1 3.9z m-84.6 186.5c50.4 0 91.3-41 91.3-91.3 0-24.9-10.2-48.7-28.1-65.9-13.8 27.1-31.9 52.1-54 74.3-22.4 22.4-47.8 40.7-75.3 54.6 17.2 18 41.1 28.3 66.1 28.3zM312.7 53.5c-72.5 0-131.4 58.9-131.4 131.4 0 27.8 8.5 54.1 24.6 76.5l183.3-183.3c-22.4-16.2-48.7-24.6-76.5-24.6zM817 326.3L628.7 138c-1.1-1.1-2.1-2.4-2.9-3.8-0.7-0.5-1.4-1.1-2-1.7-7-7-7-18.4 0-25.5l6.3-6.3c29.3-29.3 29.3-77 0-106.4s-77-29.3-106.4 0L121.2 396.8c-28.2 29.3-27.8 76.5 1 105.3 28.8 28.8 76.1 29.2 105.3 1l7.6-7.6c7-7 18.4-7 25.5 0 0.8 0.8 1.5 1.7 2.1 2.6 1.1 0.7 2.2 1.5 3.2 2.5l188.3 188.3c100.2 97.9 262.3 96.9 361.4-2.1 98.7-98.5 99.3-260.3 1.4-360.5z"  horiz-adv-x="1024" />

    
    <glyph glyph-name="bofang" unicode="&#58964;" d="M512.718 894.451C230.377 894.451 1.494 665.568 1.494 383.226S230.377-128 512.718-128s511.224 228.884 511.224 511.226S795.06 894.45 512.718 894.45z m0-971.325c-254.108 0-460.102 205.996-460.102 460.102S258.61 843.33 512.718 843.33 972.82 637.335 972.82 383.228 766.826-76.874 512.718-76.874z m232.06 496.332c-79.556 54.133-223.815 135.157-305.959 185.36-33.678 21.239-61.996 12.71-64.717-24.8-1.971-100.468 0-294.317 0-396.523 1.711-38.08 35.282-43.101 64.419-27.812 82.05 49.71 223.071 135.147 305.536 185.11-0.54 0.327 62.614 35.06 0.72 78.665z"  horiz-adv-x="1024" />

    
    <glyph glyph-name="pinglun-shuliang" unicode="&#58986;" d="M512.1-63.56a48.54 48.54 0 0 0-33.62 13.25l-77.27 73.79a39.2 39.2 0 0 1-26.92 10.59H197.66C124 34.08 64 91.73 64 162.6V664.53C64 735.4 124 793 197.66 793h233.65a19.47 19.47 0 1 0 0-38.94H197.66c-52.23 0-94.71-40.18-94.71-89.58V162.6c0-49.4 42.48-89.58 94.71-89.58h176.62a77.4 77.4 0 0 0 53.81-21.37l77.27-73.77a10 10 0 0 1 13.5 0l77.24 73.76A77.4 77.4 0 0 0 649.91 73h172.3c52.23 0 94.71 40.18 94.71 89.58l3.4 155.76a19.47 19.47 0 1 0 38.94 0V162.6c0-70.87-63.35-128.52-137-128.52H649.91A39.27 39.27 0 0 1 623 23.51l-77.25-73.79a48.59 48.59 0 0 0-33.65-13.28z"  horiz-adv-x="1024" />

    
    <glyph glyph-name="hongxin_dianjihou" unicode="&#58988;" d="M0 510.944C0 669.536 130.56 800 286.72 800c89.6 0 171.52-43.488 225.28-112.544C565.76 756.48 647.68 800 737.28 800 893.44 800 1024 669.536 1024 510.944c0-258.368-314.88-475.84-450.56-557.664-38.4-23.04-84.48-23.04-122.88 0C314.88 35.136 0 252.576 0 510.944z"  horiz-adv-x="1024" />

    
    <glyph glyph-name="suijibofang" unicode="&#58981;" d="M84.21 622.84h59.57c86.85 0 162.98-46.56 204.87-116 3.9-6.47 10.7-10.62 18.25-10.62 16.55 0 26.52 18.11 17.99 32.29-49.2 81.78-138.72 136.54-241.12 136.54H84.21c-11.65 0-21.1-9.45-21.1-21.1 0-11.66 9.45-21.11 21.1-21.11zM946.81 154.71L751.53 267.45c-18.06 10.43-40.64-2.61-40.64-23.47v-99.48h-9.42c-86.85 0-162.98 46.56-204.87 116-3.9 6.47-10.7 10.62-18.25 10.62-16.55 0-26.52-18.11-17.99-32.29 49.2-81.78 138.72-136.54 241.12-136.54h9.42v-83.8c0-20.86 22.58-33.9 40.64-23.47l195.27 112.74c18.06 10.45 18.06 36.52 0 46.95zM710.27 622.13v-97.17c0-20.86 22.58-33.9 40.64-23.47l195.27 112.74c18.07 10.43 18.07 36.5 0 46.93L750.91 773.91c-18.06 10.43-40.64-2.61-40.64-23.47v-86.27c-146.67-8.97-255.16-131.52-295.79-280.5-55.29-153.52-138.82-239.17-270.7-239.17H84.21c-11.65 0-21.1-9.45-21.1-21.1s9.45-21.1 21.1-21.1h59.57c155.4 0 270.7 126.62 312.91 281.37 52.84 146.72 131.59 231.25 253.58 238.46z"  horiz-adv-x="1024" />

    
    <glyph glyph-name="danquxunhuan" unicode="&#58983;" d="M938.61 325.56c-10.7 0-19.82-8.18-20.52-18.86C908.35 156 782.63 36.36 629.5 36.36H402.48c-156.61 0-290.18 121.55-296.09 278.05-6.22 164.53 125.82 300.36 288.99 300.36H533.1v0.01h165.04v-100.5c0-13.14 14.36-21.23 25.6-14.43L924 621c10.85 6.56 10.85 22.3 0 28.86L723.74 771.02c-11.24 6.8-25.6-1.29-25.6-14.43v-100.5H489.79v-0.01h-86.96c-185.3 0-341.42-151.64-337.9-336.91 3.41-179.59 150.05-324.13 330.46-324.13H629.5c175.07 0 318.35 136.11 329.78 308.29 0.8 11.99-8.65 22.23-20.67 22.23zM550 188V439.34h-25.92l-67.45-54.67 17.75-21.65L519.47 401h0.71v-213z"  horiz-adv-x="1024" />

    
    <glyph glyph-name="fenxiang" unicode="&#58886;" d="M819.52803 213.15109500000005c-54.67165 0-103.329418-25.695675-134.492259-65.60598l-320.922584 174.949279c7.107314 19.135077 11.481046 39.910304 11.481047 61.232248 0 16.401495-2.186866 31.709557-6.560598 46.470902L684.489055 621.001602c31.16284-40.457021 79.820609-66.152696 135.038975-66.152697 94.581954 0 170.575547 76.54031 170.575547 170.575548S913.563267 896 819.52803 896s-170.575547-76.54031-170.575547-170.575547c0-13.667912 1.640149-26.789108 4.373732-39.363588L335.137213 494.163374c-31.16284 37.176722-78.180459 60.685531-130.665243 60.685531C110.436733 554.8489050000001 33.896423 478.308596 33.896423 383.72664199999997c0-94.035238 76.54031-170.575547 170.575547-170.575547 44.830753 0 85.287774 16.948211 115.903898 45.377469l331.856914-180.963161c-2.186866-11.481046-3.827015-22.962093-3.827016-34.989856 0-94.035238 76.54031-170.575547 170.575547-170.575547 94.581954 0 170.575547 76.54031 170.575548 170.575547 0.546716 94.035238-75.993593 170.575547-170.028831 170.575548m0 614.509343c56.311799 0 102.782702-45.924186 102.782701-102.235985 0-56.311799-45.924186-102.235985-102.782701-102.235985-56.311799 0-102.235985 45.924186-102.235985 102.235985-0.546716 56.311799 45.377469 102.235985 102.235985 102.235985M102.235985 383.72664199999997c0 56.311799 45.924186 102.235985 102.235985 102.235985C260.783769 485.962627 307.254672 440.038441 307.254672 383.72664199999997c0-56.311799-45.924186-102.235985-102.782702-102.235985-56.311799 0-102.235985 45.924186-102.235985 102.235985m717.292045-443.933796c-56.311799 0-102.235985 45.924186-102.235985 102.235985 0 56.311799 45.924186 102.235985 102.235985 102.235985 56.311799 0 102.782702-45.924186 102.782701-102.235985-0.546716-55.765083-46.470902-102.235985-102.782701-102.235985"  horiz-adv-x="1024" />

    
    <glyph glyph-name="shangyishou" unicode="&#58923;" d="M197.333333 768v-768h32V768zM203.285333 384l534.805334-316.928a58.666667 58.666667 0 0 1 88.576 50.474667V650.453333a58.666667 58.666667 0 0 1-88.576 50.474667L203.264 384z m62.762667 0l488.362667 289.386667a26.666667 26.666667 0 0 0 40.256-22.933334v-532.906666a26.666667 26.666667 0 0 0-40.256-22.933334L266.026667 384z"  horiz-adv-x="1024" />

    
    <glyph glyph-name="xiayishou" unicode="&#58925;" d="M794.666667 768v-768h32V768zM820.714667 384L285.909333 67.072A58.666667 58.666667 0 0 0 197.333333 117.546667V650.453333a58.666667 58.666667 0 0 0 88.576 50.474667L820.736 384zM269.589333 673.386667a26.666667 26.666667 0 0 1-40.256-22.933334v-532.906666a26.666667 26.666667 0 0 1 40.256-22.933334L757.973333 384 269.589333 673.386667z"  horiz-adv-x="1024" />

    
    <glyph glyph-name="-lbxh" unicode="&#58887;" d="M938.61 325.55999999999995c-10.7 0-19.82-8.18-20.52-18.86C908.35 156 782.63 36.360000000000014 629.5 36.360000000000014H402.48c-156.61 0-290.18 121.55-296.09 278.05-6.22 164.53 125.82 300.36 288.99 300.36H533.1v0.01h165.04v-100.5c0-13.14 14.36-21.23 25.6-14.43L924 621c10.85 6.56 10.85 22.3 0 28.86L723.74 771.02c-11.24 6.8-25.6-1.29-25.6-14.43v-100.5H489.79v-0.01h-86.96c-185.3 0-341.42-151.64-337.9-336.91 3.41-179.59 150.05-324.13 330.46-324.13H629.5c175.07 0 318.35 136.11 329.78 308.29 0.8 11.99-8.65 22.23-20.67 22.23z"  horiz-adv-x="1024" />

    
    <glyph glyph-name="bofangliebiao" unicode="&#58888;" d="M956.40234666 52.09884445L67.59765334 52.09884445C52.25813333 52.09884445 39.82222222 39.66179553999996 39.82222222 24.323413329999994s12.43591113-27.7754311 27.77543109-27.77543111l888.80583114 0c15.35203555 0 27.7754311 12.43591113 27.7754311 27.77543111-0.00113778 15.33838221-12.42453333 27.7754311-27.77656889 27.77543112zM956.40234666 347.24977777000004L67.59765334 347.24977777000004C52.25813333 347.24977777000004 39.82222222 334.81386667000004 39.82222222 319.47548444999995c0-15.33838221 12.43591113-27.7754311 27.77543109-27.77543114l888.80583114 0c15.35203555 0 27.7754311 12.43591113 27.7754311 27.77543114-0.00113778 15.33838221-12.42453333 27.77429334-27.77656889 27.77429334zM512 582.63438223l444.40234666 0c15.35203555 0 27.7754311 12.43591113 27.77543112 27.7754311s-12.42339555 27.7754311-27.77543112 27.77543112L512 638.18524445c-15.35203555 0-27.7754311-12.43591113-27.7754311-27.77543112s12.42339555-27.7754311 27.7754311-27.77543112zM53.70993778 447.47434667c4.29966222-2.48149333 9.08629333-3.71598222 13.88771556-3.71598222s9.58805333 1.23448889 13.88771555 3.71598223L317.16693333 583.54232889c8.59818667 4.96412445 13.88771555 14.13120001 13.88771554 24.05944889s-5.28952887 19.09532445-13.88771554 24.05944889L81.48536889 767.72920889a27.76291555 27.76291555 0 0 1-27.77543111 0A27.77201777 27.77201777 0 0 1 39.82222222 743.66975999l0-272.13710221a27.76974222 27.76974222 0 0 1 13.88771556-24.05831112z"  horiz-adv-x="1024" />

    
    <glyph glyph-name="yejian" unicode="&#59087;" d="M512 605.265778c-41.938489-39.412622-68.266667-95.254756-68.266667-157.354667 0-119.3984 96.779378-216.177778 216.177778-216.177778 62.099911 0 117.942044 26.328178 157.377422 68.266667L876.088889 300c0-201.090844-163.0208-364.088889-364.088889-364.088889s-364.088889 162.998044-364.088889 364.088889 163.0208 364.088889 364.088889 364.088889L512 605.265778zM193.422222 300c0-175.9232 142.631822-318.577778 318.577778-318.577778 157.2864 0 287.630222 114.096356 313.571556 263.964444-45.124267-36.955022-102.786844-59.164444-165.660444-59.164444-144.520533 0-261.688889 117.168356-261.688889 261.688889 0 62.8736 22.209422 120.536178 59.164444 165.660444C307.518578 587.630222 193.422222 457.2864 193.422222 300z"  horiz-adv-x="1024" />

    
    <glyph glyph-name="piao" unicode="&#58884;" d="M514.008942 811.626243c-283.681358 0-513.681905-229.112875-513.681905-511.766402 0-282.746966 230.000547-511.859841 513.681905-511.859841s513.728625 229.112875 513.728625 511.859841C1027.737567 582.513368 797.6903 811.626243 514.008942 811.626243zM514.008942-164.673054c-257.611826 0-466.354959 207.99562-466.354959 464.532895 0 256.443836 208.789853 464.392737 466.354959 464.392737 257.565106 0 466.495118-207.99562 466.495118-464.392737C980.504061 43.322566 771.574049-164.673054 514.008942-164.673054zM667.249202 148.955562l-40.879642 0c25.555616-61.342823 84.328862-99.606168 176.226298-114.930194l0 22.939319C727.610913 75.745962 682.526508 106.347294 667.249202 148.955562zM225.375308 56.964687l0-22.939319c91.990875 15.324026 150.717401 53.634091 176.179578 114.930194L360.721964 148.955562C345.444657 106.347294 300.220093 75.745962 225.375308 56.964687zM220.236153 152.926727l278.402044 0 0-60.174833c1.635186-27.237522-12.754448-39.94525-43.44922-38.263345L414.356054 54.488548l0-28.125194 53.634091 0c47.653983 0 71.480975 20.463181 71.480975 61.342823l0 65.220549 265.647596 0 0 47.513824L220.236153 200.440551 220.236153 152.926727zM284.195273 291.96423l0-43.028743 459.674058 0 0 43.028743L284.195273 291.96423zM222.85245 573.262889l0-44.52377 185.336618 0 0-47.747422L263.685373 480.991696l0-141.560361 429.119445 0c49.382608-1.728625 72.321927 28.125194 68.958117 69.004836L761.762935 480.991696l-143.055388 0L618.707546 528.739119l188.980746 0L807.688293 573.262889 222.85245 573.262889zM408.189068 375.171822 304.565015 375.171822 304.565015 445.204489l103.624053 0L408.189068 375.171822zM580.397482 375.171822 446.499133 375.171822 446.499133 445.204489l133.898348 0L580.397482 375.171822zM580.397482 480.991696 446.499133 480.991696 446.499133 528.739119l133.898348 0L580.397482 480.991696zM723.45287 445.204489 723.45287 408.342732c0-22.191806-11.165982-33.17091-33.217629-33.17091l-71.527694 0L618.707546 445.204489 723.45287 445.204489z"  horiz-adv-x="1028" />

    
    <glyph glyph-name="zhuye" unicode="&#59093;" d="M894.063304 263.336348c-12.04313 0-21.793391-9.750261-21.793391-21.793391l0-347.91513c0-24.064-19.522783-43.564522-43.542261-43.564522L218.802087-149.936696c-24.041739 0-43.564522 19.500522-43.564522 43.564522L175.237565 241.565217c0 12.04313-9.750261 21.793391-21.77113 21.793391-12.065391 0-21.815652-9.750261-21.815652-21.793391L131.650783-106.483478c0.089043-47.705043 38.466783-86.28313 86.082783-86.884174l611.149913-0.089043c48.016696 0.111304 86.884174 38.978783 86.950957 86.950957L915.834435 241.565217C915.856696 253.586087 906.084174 263.336348 894.063304 263.336348zM1019.392 348.328348 584.926609 783.216696c-33.769739 33.324522-87.952696 33.413565-121.856 0.333913L28.338087 348.684522c-7.479652-8.570435-7.368348-21.459478 0.801391-29.629217 8.169739-8.147478 21.058783-8.258783 29.606957-0.77913L493.011478 752.051478c16.896 16.896 44.187826 16.962783 61.239652 0.289391l434.866087-434.309565c8.592696-7.168 21.214609-6.989913 29.250783 1.046261C1026.404174 327.113739 1026.582261 339.780174 1019.392 348.328348z"  horiz-adv-x="1025" />

    
    <glyph glyph-name="dengpao" unicode="&#58880;" d="M515.596521 709.755458c-160.052458 0-290.194707-130.147537-290.194707-290.194707 0-111.38509 63.315161-212.226466 162.974879-260.883259l0-125.453951c0-35.176117 21.105935-65.665258 51.595075-79.145934l0-26.971925c0-30.483854 24.617863-55.105682 55.105682-55.105682l42.214513 0c30.483854 0 55.105682 24.617863 55.105682 55.105682l0 26.966638c30.483854 13.480676 51.589788 43.969816 51.589788 79.151221l0 125.453951C743.062931 207.334285 806.962312 308.171695 806.962312 419.560751c-1.172405 160.04717-131.319942 290.199994-291.367112 290.199994l0 0L515.595199 709.755458zM536.693203-86.969788 494.483977-86.969788c-7.616007 0-14.070183 6.454176-14.070183 14.074148l0 19.346666 70.358844 0 0-19.346666C550.772638-80.515612 544.318463-86.969788 536.693203-86.969788L536.693203-86.969788 536.693203-86.969788zM556.043835-12.506866 475.142598-12.506866c-25.206048 0-45.729085 20.513784-45.729085 45.730407l0 49.241013 172.948913 0 0-49.241013C601.774242 8.006919 581.251205-12.506866 556.043835-12.506866L556.043835-12.506866 556.043835-12.506866zM515.596521 286.480219l-43.975103 80.313052 87.355413 0L515.596521 286.480219 515.596521 286.480219zM614.082512 190.920614l-12.309592-5.276484 0-62.144077-65.659971 0 0 120.765653c3.515893 2.348775 5.865991 5.865991 8.209479 9.376597l59.79398 110.217972c5.276484 8.797664 4.688299 19.934851-0.582898 28.727229-5.860704 9.381884-16.418958 15.246553-28.139043 15.246553L455.213034 407.834057c-11.73066 0-22.27834-5.860704-28.139043-15.246553-5.276484-8.792377-5.865991-19.346666-0.588185-28.727229l60.387453-110.800871c2.34481-3.510606 4.688299-7.031787 8.204192-9.381884l0-120.177468L429.417479 123.500053 429.417479 185.64413l-12.313558 5.276484C325.655004 230.191558 267.02682 320.485253 267.02682 419.555464c0 137.189898 111.973276 249.157886 249.157886 249.157886S765.34788 556.740075 765.34788 419.555464c-0.588185-99.070211-59.799267-188.774399-151.254793-228.63485l0 0L614.082512 190.920614zM20.739806 477.547879l108.839372 0 0-42.028144L20.739806 435.519735 20.739806 477.547879 20.739806 477.547879zM239.507684 677.903578l-76.957092 76.957092 29.723839 29.718552L269.231523 707.623452 239.507684 677.903578 239.507684 677.903578zM755.884046 707.623452l76.957092 76.95577 29.718552-29.718552-76.957092-76.957092L755.884046 707.623452 755.884046 707.623452zM894.426109 477.547879l108.834085 0 0-42.028144L894.426109 435.519735 894.426109 477.547879 894.426109 477.547879zM490.983945 896l42.03211 0 0-108.834085-42.03211 0L490.983945 896 490.983945 896zM490.983945 896"  horiz-adv-x="1024" />

    
    <glyph glyph-name="weizhi" unicode="&#58912;" d="M512 346.2c-89.8 0-163 73-163 163s73 163 163 163 163-73 163-163S601.8 346.2 512 346.2zM512 616.4c-59.2 0-107.2-48.2-107.2-107.2 0-59.2 48.2-107.2 107.2-107.2 59.2 0 107.2 48.2 107.2 107.2C619.2 568.4 571.2 616.4 512 616.4zM512-110.4 512-110.4c-8.2 0-16 3.6-21.2 9.8-14.2 16.8-348 413.4-348 609.8C142.8 712.8 308.4 878.4 512 878.4c203.6 0 369.2-165.6 369.2-369.2 0-196.6-333.8-593-348-609.8C528-106.8 520.2-110.4 512-110.4zM512 822.8c-173 0-313.6-140.8-313.6-313.6 0-136.2 209.6-421 313.6-548.4 104 127.4 313.6 412.2 313.6 548.4C825.6 682.2 685 822.8 512 822.8z"  horiz-adv-x="1024" />

    
    <glyph glyph-name="tinggeshiqu" unicode="&#58959;" d="M897.986245 624.940038 837.751236 624.940038C837.751236 624.940038 837.751236 624.940038 837.751236 624.940038 837.751236 664.243381 812.512767 697.312402 777.516227 709.750931L777.516227 540.129144C777.516227 540.129144 777.516227 540.129144 777.516227 540.129144L777.516227 477.394382C777.516227 477.394382 777.516227 477.394382 777.516227 477.394382L777.516227 414.117505C777.516227 412.039397 776.733171 410.202229 776.311526 408.244591 776.672936 405.172606 777.516227 402.22109 777.516227 399.058752 777.516227 340.841616 716.829455 293.677603 641.987455 293.677603 567.145456 293.677603 506.458684 340.841616 506.458684 399.058752 506.458684 457.275889 567.085221 504.409784 641.866985 504.470019L642.04769 504.470019C648.462719 504.470019 654.305515 502.994261 660.509721 502.301559 659.545961 502.964144 658.732788 503.777316 657.799145 504.470019L717.281217 504.470019 717.281217 772.485693C727.009171 774.473449 737.068418 775.527561 747.398722 775.527561 830.553152 775.527561 897.986245 708.124586 897.986245 624.940038 897.986245 624.940038 897.986245 624.940038 897.986245 624.940038ZM641.987455 444.235009C600.395181 444.235009 566.693694 424.026164 566.693694 399.058752 566.693694 374.121458 600.395181 353.882495 641.987455 353.882495 683.579729 353.882495 717.281217 374.121458 717.281217 399.058752 717.281217 424.026164 683.579729 444.235009 641.987455 444.235009ZM446.223675 715.292552C363.069244 715.292552 295.636151 637.318332 295.636151 541.15314L295.636151 317.229492C295.636151 221.034182 363.069244 143.059962 446.223675 143.059962 502.965054 143.059962 551.785529 179.803318 577.445643 233.412476L648.191661 233.412476C622.26049 146.34277 541.696165 82.824953 446.223675 82.824953 329.789401 82.824953 235.401142 177.213213 235.401142 293.677603L235.401142 564.735146C235.401142 681.139302 329.789401 775.527561 446.223675 775.527561 562.657948 775.527561 657.046208 681.139302 657.046208 564.735146L657.046208 564.705028 594.763208 564.705028C584.734079 649.636392 522.420962 715.292552 446.223675 715.292552ZM446.223675 895.99758C446.28391 895.99758 446.314027 895.99758 446.374262 895.99758L446.073087 895.99758C446.133322 895.99758 446.16344 895.99758 446.223675 895.99758ZM446.223675 22.589943C553.080581 22.589943 645.240146 91.890322 689.36229 192.392435 688.03712 195.795713 687.163712 199.439931 687.163712 203.294972 687.163712 214.619153 693.638976 224.07605 702.854932 229.226143 703.276577 230.671783 703.96928 231.966836 704.390925 233.412476L717.220982 233.412476C717.2511 233.412476 717.2511 233.412476 717.281217 233.412476 717.311335 233.412476 717.311335 233.412476 717.341452 233.412476L766.643807 233.412476C732.249617 87.884694 617.140514-22.224904 476.341179-36.109073L476.341179-97.880076C476.341179-114.504938 462.848537-127.99758 446.223675-127.99758 429.598812-127.99758 416.10617-114.504938 416.10617-97.880076L416.10617-36.109073C275.306835-22.224904 160.197732 87.884694 125.803542 233.412476L175.105897 233.412476C175.136015 233.412476 175.136015 233.412476 175.166132 233.412476 175.19625 233.412476 175.19625 233.412476 175.226367 233.412476L188.056424 233.412476C188.478069 231.966836 189.140654 230.671783 189.592417 229.226143 198.808373 224.07605 205.283637 214.619153 205.283637 203.294972 205.283637 199.439931 204.410229 195.795713 203.085059 192.392435 247.207203 91.890322 339.366768 22.589943 446.223675 22.589943Z"  horiz-adv-x="1024" />

    
    <glyph glyph-name="youhuiquan-copy" unicode="&#59003;" d="M498.732-43.615c-19.955 0-38.485 7.126-52.739 21.38l-65.569 68.417c-8.553 8.553-8.553 22.805 0 32.784 15.679 15.679 24.231 35.633 24.231 57.015s-8.553 42.763-22.805 57.015c-14.254 15.679-35.633 24.231-58.442 24.231-21.38 0-41.337-8.553-57.015-22.805-4.276-4.276-9.979-7.126-15.679-7.126-5.701 0-11.403 2.852-15.679 7.126l-65.569 69.844c-14.254 14.254-21.38 32.784-21.38 51.314 0 19.955 8.553 38.485 21.38 51.314l431.892 424.766c12.829 12.829 31.359 19.955 51.314 19.955s38.485-7.126 52.739-21.38l66.992-68.417c8.553-8.553 8.553-22.805 0-32.784-15.679-15.679-24.231-35.633-24.231-57.015s8.553-42.763 22.805-58.442c14.254-15.679 35.633-24.231 58.442-24.231 21.38 0 41.337 8.553 57.015 22.805 4.276 4.276 11.403 5.701 17.105 7.126 5.701 0 11.403-2.852 15.679-7.126l65.569-68.417c14.254-14.254 21.38-32.784 21.38-51.314 0-19.955-8.553-38.485-21.38-51.314l-434.742-423.34c-14.254-14.254-32.784-21.38-51.314-21.38zM323.41 264.267c34.209 0 66.992-14.254 91.225-38.485 24.231-24.231 37.061-55.59 35.633-89.798 0-24.231-7.126-47.038-19.955-66.992-1.424-2.852-1.424-7.126 1.424-9.979l47.038-48.464c5.701-5.701 12.829-8.553 19.955-8.553s14.254 2.852 19.955 7.126l431.892 423.34c5.701 5.701 8.553 12.829 8.553 19.955s-2.852 14.254-8.553 19.955l-47.038 48.464c-1.424 1.424-4.276 2.852-5.701 2.852s-2.852 0-4.276-1.424c-19.955-11.403-41.337-18.53-65.569-18.53-34.209 0-66.992 14.254-89.798 38.485-24.231 24.231-37.061 55.59-35.633 89.798 0 24.231 7.126 47.038 19.955 66.992 1.424 2.852 1.424 7.126-1.424 9.979l-47.038 48.464c-5.701 5.701-12.829 8.553-19.955 8.553s-14.254-2.852-19.955-7.126l-431.892-423.34c-5.701-5.701-8.553-12.829-8.553-19.955s2.852-14.254 7.126-19.955l47.038-48.464c1.424-1.424 4.276-2.852 5.701-2.852s2.852 0 4.276 1.424c19.955 11.403 42.763 18.53 65.569 18.53zM517.264 227.207c-5.701 0-11.403 2.852-15.679 7.126s-7.126 9.979-7.126 15.679c0 5.701 2.852 11.403 7.126 15.679l173.895 173.895c4.276 4.276 9.979 7.126 15.679 7.126s11.403-2.852 15.679-7.126c4.276-4.276 7.126-9.979 7.126-15.679 0-5.701-2.852-11.403-7.126-15.679l-172.471-173.895c-5.701-4.276-11.403-7.126-17.105-7.126zM424.612 321.283c-5.701 0-11.403 2.852-15.679 7.126-4.276 4.276-7.126 9.979-7.126 15.679 0 5.701 2.852 11.403 7.126 15.679l173.895 173.895c4.276 4.276 9.979 7.126 15.679 7.126s11.403-2.852 15.679-7.126c8.553-8.553 8.553-22.805 0-32.784l-173.895-173.895c-4.276-4.276-9.979-5.701-15.679-5.701z"  horiz-adv-x="1170" />

    
    <glyph glyph-name="yunpan" unicode="&#59040;" d="M776.378182 544.116364c-57.716364 102.4-167.563636 165.701818-288.581818 165.701818-78.196364 0-156.392727-29.789091-215.970909-80.058182-53.992727-46.545455-91.229091-109.847273-106.123637-178.734545C80.058182 424.96 18.618182 346.763636 18.618182 257.396364c0-98.676364 74.472727-182.458182 171.287273-197.352728v-1.861818h567.854545C893.672727 58.181818 1005.381818 168.029091 1005.381818 302.08c0 126.603636-100.538182 232.727273-229.003636 242.036364z m-18.618182-430.08H219.694545c-80.058182 1.861818-143.36 65.163636-143.36 143.36 0 68.887273 50.269091 128.465455 119.156364 141.498181l20.48 3.723637 3.723636 20.48c9.309091 63.301818 40.96 121.018182 91.229091 163.84 48.407273 42.821818 111.709091 67.025455 176.872728 67.025454 89.367273 0 173.149091-42.821818 223.418181-113.570909-59.578182-11.170909-115.432727-44.683636-152.66909-93.090909-9.309091-13.032727-7.447273-29.789091 5.585454-39.098182s29.789091-7.447273 39.098182 5.585455c37.236364 48.407273 91.229091 76.334545 152.669091 76.334545 104.261818 0 189.905455-83.781818 189.905454-186.181818 1.861818-106.123636-81.92-189.905455-188.043636-189.905454z"  horiz-adv-x="1024" />

    
    <glyph glyph-name="lingdang" unicode="&#58924;" d="M610.28 59.15h-39.312c-5.179 0-9.406-4.227-9.406-9.406 0-27.317-22.245-49.615-49.562-49.615s-49.615 22.297-49.615 49.615c0 5.179-4.227 9.406-9.406 9.406H413.72c-5.179 0-9.406-4.227-9.406-9.406 0-58.386 49.351-107.737 107.737-107.737s107.685 49.351 107.685 107.737c-0.053 5.231-4.227 9.406-9.458 9.406z m89.613 380.33c1.48-3.646 4.967-5.917 8.718-5.917 0.581 0 1.216 0.053 1.797 0.158a9.498 9.498 0 0 1 7.609 9.299c-0.264 44.596-14.53 88.716-39.259 121.105-25.045 32.865-64.675 57.17-105.993 65.043-4.386 0.898-8.56-1.426-10.356-5.389-1.797-3.963-0.634-8.665 2.801-11.308 60.131-46.393 109.217-109.481 134.685-172.993z m214.788-330.767c0 3.699-0.74 7.345-2.219 10.937-8.56 62.983-43.433 119.309-96.113 155.344V442.968c0 126.707-78.993 240.414-197.192 284.851-4.861 54.687-51.676 98.174-107.156 98.174-55.48 0-102.294-43.433-107.209-98.12-118.146-44.489-197.139-158.198-197.139-284.904v-167.974c-52.679-36.089-87.5-92.308-96.06-155.292-2.114-5.231-2.694-10.779-1.69-16.22-0.37-4.755-0.528-9.563-0.528-14.425 0-5.179 4.227-9.406 9.406-9.406h786.498c5.179 0 9.406 4.227 9.406 9.406 0 4.861-0.211 9.616-0.528 14.372 0.264 1.48 0.528 3.329 0.528 5.284zM568.802 682.484c13.157-3.065 25.891-7.186 37.832-12.206 90.671-37.832 151.541-129.19 151.541-227.31v-195.555c0-3.539 2.061-6.817 5.179-8.454 41.742-20.765 72.494-57.224 85.863-101.185H174.736c13.369 43.961 44.12 80.42 85.863 101.185a9.482 9.482 0 0 1 5.231 8.454V442.968c0 112.862 79.627 213.626 189.373 239.516 4.227 1.004 7.238 4.808 7.238 9.142v26.631c0 26.895 22.72 49.562 49.615 49.562 26.842 0 49.562-22.72 49.562-49.562v-26.578c-0.053-4.386 2.959-8.137 7.186-9.194z"  horiz-adv-x="1024" />

    
    <glyph glyph-name="dingdan" unicode="&#58969;" d="M698.68789 188.422649H326.608639c-16.696264 0-25.743314-13.377682-25.743314-26.815738 0-13.43908 9.063423-26.836205 25.743314-26.836206h372.079251c16.712637 0 25.743314 13.396101 25.743314 26.836206 0 13.420661-9.0624 26.815739-25.743314 26.815738zM671.423943 832.222441H251.999384c-66.816778 0-117.630071-50.758034-117.63007-117.53695V53.314509c0-66.762543 50.814316-117.53695 117.63007-117.53695h521.30083c66.816778 0 117.630071 50.77543 117.630071 117.53695V606.110657L671.423943 832.222441z m149.667741-228.081648l-94.78783-0.282433h4.03899c-34.352389 0-60.836577 15.036461-60.836577 52.573379l0.113587 101.352339 151.47183-153.643285z m18.594497-549.200251c0-34.214243-30.05041-63.151295-64.237024-63.151295H256.590959c-34.218336 0-71.013357 31.18935-71.013357 65.404616V711.94917c0 34.231639 34.541701 68.717058 67.633377 68.717058h364.667443l-0.24764-128.423904c0-68.414159 32.94432-100.257401 101.487416-100.257402h120.604822v-497.04438h-0.036839zM698.68789 370.772744H326.608639c-16.696264 0-25.743314-13.378705-25.743314-26.816762 0-13.437034 9.063423-26.835182 25.743314-26.835182h372.079251c16.712637 0 25.743314 13.396101 25.743314 26.835182 0 13.419637-9.0624 26.816762-25.743314 26.816762zM543.068599 554.810271H321.92906c-10.392698 0-21.063735-14.303774-21.063735-27.433816 0-13.130042 10.685363-26.219151 21.063735-26.219152h221.139539c10.392698 0 21.062711 13.08911 21.062712 26.219152 0 13.113669-10.686387 27.433816-21.062712 27.433816z"  horiz-adv-x="1024" />

    
    <glyph glyph-name="naozhong" unicode="&#58899;" d="M876.4 350.2c0 201.5-163.3 364.8-364.8 364.8S146.8 551.7 146.8 350.2c0-106 45.2-201.5 117.4-268.1l-51.5-51.5c-8.3-8.3-8.3-21.8 0-30.1s21.8-8.3 30.1 0l54.5 54.5c60.2-43.8 134.2-69.6 214.3-69.6 85.4 0 163.9 29.3 226 78.5 0.6-0.8 1.2-1.6 2-2.3l61.1-61.1c8.3-8.3 21.8-8.3 30.1 0s8.3 21.8 0 30.1l-61.1 61.1c-0.1 0.1-0.3 0.2-0.4 0.4 66.2 65.9 107.1 157.2 107.1 258.1z m-687.1 0c0 178 144.3 322.2 322.2 322.2 178 0 322.2-144.3 322.2-322.2S689.5 28 511.6 28c-178 0-322.3 144.2-322.3 322.2zM154.4 589.8C189.9 655 253.7 709 334.2 741.7c10.9 4.4 16.1 16.8 11.7 27.7-4.4 10.9-16.8 16.1-27.7 11.7-89.3-36.2-160.8-96.7-201.2-171-5.6-10.3-1.8-23.3 8.5-28.9 10.3-5.5 23.3-1.7 28.9 8.6zM907.2 608.6c-42.4 79-119.8 142.5-216.3 178.1-11 4.1-23.3-1.6-27.3-12.6-4.1-11 1.6-23.3 12.6-27.3 87.1-32.2 156.3-88.9 193.5-158.3 5.6-10.4 18.5-14.2 28.8-8.7 10.4 5.5 14.2 18.4 8.7 28.8zM712.2 331H596.7c-35.3 0-63.9 28.6-63.9 63.9v158c0 11.8-9.5 21.3-21.3 21.3s-21.3-9.5-21.3-21.3v-158c0-58.8 47.7-106.5 106.5-106.5h115.5c11.8 0 21.3 9.5 21.3 21.3 0 11.7-9.5 21.3-21.3 21.3z"  horiz-adv-x="1024" />

    
    <glyph glyph-name="saoyisao" unicode="&#58881;" d="M84.732394 701.295775c0 57.690141 46.873239 108.169014 108.169014 108.169014h194.704226V852.732394H178.478873c-79.323944 0-144.225352-64.901408-144.225352-144.225352v-205.521127h46.87324l3.605633 198.30986z m0 0M939.267606 701.295775v-194.704226h46.873239V712.112676c0 79.323944-64.901408 144.225352-144.225352 144.225352h-209.126761v-46.873239h194.704226c64.901408-3.605634 111.774648-50.478873 111.774648-108.169014z m0 0M84.732394 55.887324v194.704225H37.859155v-205.521126c0-79.323944 64.901408-144.225352 144.225352-144.225353h205.521127v46.87324H192.901408c-61.295775 0-108.169014 46.873239-108.169014 108.169014z m0 0M942.873239 55.887324c0-57.690141-46.873239-108.169014-108.169014-108.169014h-194.704225v-46.87324h209.126761c79.323944 0 144.225352 64.901408 144.225352 144.225353v205.521126h-46.87324v-194.704225z m0 0M993.352113 394.816901H30.647887c-14.422535 0-25.239437-10.816901-25.239436-25.239436 0-14.422535 10.816901-25.239437 25.239436-25.239437h962.704226c14.422535 0 25.239437 10.816901 25.239436 25.239437 3.605634 14.422535-10.816901 25.239437-25.239436 25.239436z m0 0"  horiz-adv-x="1024" />

    
    <glyph glyph-name="zaixiantinggemianliuliang" unicode="&#58967;" d="M230.14 344.8c-16.11 0-29.17-13.06-29.17-29.17v-213.9c0-16.11 13.06-29.17 29.17-29.17s29.17 13.06 29.17 29.17v213.9c0 16.11-13.06 29.17-29.17 29.17zM346.81 344.8c-16.11 0-29.17-13.06-29.17-29.17v-213.9c0-16.11 13.06-29.17 29.17-29.17s29.17 13.06 29.17 29.17v213.9c0 16.11-13.06 29.17-29.17 29.17zM463.49 344.8c-16.11 0-29.17-13.06-29.17-29.17v-213.9c0-16.11 13.06-29.17 29.17-29.17s29.17 13.06 29.17 29.17v213.9c-0.01 16.11-13.07 29.17-29.17 29.17zM847.72 817.59c-15.23 9.56-32.89 14.38-50.88 14.38H226.8c-17.77 0-35.21-4.69-50.31-14.05-35.63-22.11-96.07-69.88-111.64-161.98v-593.76c0-69.44 56.29-125.73 125.73-125.73h643.05c69.44 0 125.73 56.29 125.73 125.73V655.93c-15.27 91.33-75.87 139.21-111.64 161.66z m-643.86-54.06c9.65 6.61 21.09 10.1 32.79 10.1h550.01a58.15 58.15 0 0 0 33.21-10.39c28.23-19.62 66.73-48 79.65-107.3H124.74c13.35 59.92 51.62 88.74 79.12 107.59z m697.15-701.36c0-37.16-30.23-67.4-67.4-67.4H190.57c-37.15 0-67.39 30.23-67.39 67.4V597.59h777.83v-535.42z"  horiz-adv-x="1024" />

    
    <glyph glyph-name="haoyou" unicode="&#58882;" d="M547.916 350.316a236.485 236.485 0 0 1 51.861 38.438c44.546 43.569 69.079 101.497 69.079 163.112 0 61.615-24.533 119.543-69.079 163.112-44.547 43.569-103.774 67.563-166.771 67.563-62.998 0-122.226-23.994-166.772-67.563-44.547-43.569-69.08-101.496-69.08-163.112s24.533-119.544 69.08-163.112a236.48 236.48 0 0 1 51.86-38.437C167.672 306.547 52.53 179.005 33.06 19.97c-1.7-13.872 8.422-26.464 22.607-28.126 14.186-1.665 27.058 8.238 28.757 22.11 21.085 172.226 170.944 302.102 348.583 302.102 177.639 0 327.497-129.876 348.584-302.102 1.573-12.85 12.738-22.292 25.649-22.292a26.934 26.934 0 0 1 3.108 0.183c14.183 1.662 24.303 14.254 22.606 28.126-19.472 159.034-134.614 286.577-285.037 330.345z m-299.031 201.55c0 99.296 82.596 180.08 184.12 180.08s184.12-80.784 184.12-180.08c0-99.297-82.596-180.08-184.12-180.08s-184.12 80.783-184.12 180.08zM996.916 19.97c-10.118 82.656-42.429 161.688-93.437 228.556-42.756 56.05-97.66 102.36-160.22 135.442 21.612 18.449 40.055 40.384 54.297 64.824a245.851 245.851 0 0 1 33.398 123.64c0 47.51-13.687 93.743-39.582 133.698-25.184 38.857-60.743 70.162-102.833 90.528-12.8 6.195-28.318 1.068-34.652-11.456-6.335-12.523-1.09-27.697 11.713-33.893 33.59-16.254 61.972-41.244 82.08-72.268 20.635-31.84 31.542-68.706 31.542-106.61 0-34.62-9.202-68.711-26.612-98.589-16.902-29.007-41.195-53.625-70.25-71.191-12.152-7.347-15.914-22.936-8.403-34.82a25.492 25.492 0 0 1 4.25-5.104c2.616-3.835 6.33-7.02 10.953-9.04 68.23-29.792 128.004-76.62 172.855-135.418 45.605-59.785 74.492-130.436 83.537-204.317 1.574-12.85 12.738-22.292 25.65-22.292 1.024 0 2.062 0.06 3.107 0.183 14.184 1.663 24.305 14.255 22.607 28.127z"  horiz-adv-x="1024" />

    
    <glyph glyph-name="shezhi" unicode="&#58917;" d="M494.933333 746.666667c8.533333 0 14.933333-2.133333 21.333334-6.4l275.2-160c12.8-8.533333 21.333333-21.333333 21.333333-36.266667v-317.866667c0-14.933333-8.533333-29.866667-21.333333-36.266666l-275.2-160c-6.4-4.266667-12.8-6.4-21.333334-6.4s-14.933333 2.133333-21.333333 6.4l-277.333333 160c-12.8 8.533333-21.333333 21.333333-21.333334 36.266666V544c0 14.933333 8.533333 29.866667 21.333334 36.266667l275.2 160c8.533333 4.266667 14.933333 6.4 23.466666 6.4m0 42.666666c-14.933333 0-29.866667-4.266667-42.666666-10.666666L174.933333 618.666667c-25.6-14.933333-42.666667-42.666667-42.666666-74.666667v-317.866667c0-29.866667 17.066667-57.6 42.666666-74.666666l275.2-160c12.8-8.533333 27.733333-10.666667 42.666667-10.666667s29.866667 4.266667 42.666667 10.666667L810.666667 151.466667c25.6 14.933333 42.666667 42.666667 42.666666 74.666666V544c0 29.866667-17.066667 57.6-42.666666 74.666667L537.6 778.666667c-14.933333 6.4-27.733333 10.666667-42.666667 10.666666zM494.933333 494.933333c59.733333 0 106.666667-46.933333 106.666667-106.666666s-46.933333-106.666667-106.666667-106.666667-106.666667 46.933333-106.666666 106.666667 46.933333 106.666667 106.666666 106.666666m0 42.666667c-83.2 0-149.333333-66.133333-149.333333-149.333333s66.133333-149.333333 149.333333-149.333334 149.333333 66.133333 149.333334 149.333334-68.266667 149.333333-149.333334 149.333333z"  horiz-adv-x="1024" />

    
    <glyph glyph-name="youjian" unicode="&#59474;" d="M89.6 716.8l371.2-307.2c32-25.6 70.4-25.6 102.4 0l371.2 307.2H89.6z m-38.4-38.4v-576c0-25.6 25.6-51.2 51.2-51.2h819.2c25.6 0 51.2 25.6 51.2 51.2V665.6v19.2L595.2 371.20000000000005c-44.8-38.4-115.2-38.4-166.4 0L51.2 678.4zM102.4 768h819.2c57.6 0 102.4-44.8 102.4-102.4v-563.2c0-57.6-44.8-102.4-102.4-102.4H102.4C44.8 0 0 44.799999999999955 0 102.39999999999998V665.6C0 723.2 44.8 768 102.4 768z"  horiz-adv-x="1024" />

    
    <glyph glyph-name="tuichu" unicode="&#58952;" d="M517.8-70.3c-57.8 0-113.8 11.3-166.6 33.6-51 21.6-96.7 52.4-136 91.7-39.3 39.3-70.2 85.1-91.7 136-22.3 52.8-33.6 108.8-33.6 166.6 0 68.3 16.5 136.3 47.7 196.5 30.2 58.3 74.2 109.7 127.2 148.6 13.2 9.7 31.8 6.9 41.5-6.4 9.7-13.2 6.9-31.8-6.4-41.5-94.3-69.3-150.6-180.4-150.6-297.3 0-203.3 165.4-368.6 368.6-368.6s368.6 165.4 368.6 368.6c0 114.3-51.8 220.3-142 290.8-12.9 10.1-15.2 28.7-5.1 41.7 10.1 12.9 28.7 15.2 41.7 5.1 50.2-39.2 91.7-89.9 120.1-146.7 29.7-59.6 44.8-123.8 44.8-190.9 0-57.8-11.3-113.8-33.6-166.6-21.6-51-52.4-96.7-91.7-136s-85.1-70.2-136-91.7c-53-22.2-109.1-33.5-166.9-33.5zM517.8 300.5c-16.4 0-29.7 13.3-29.7 29.7V783.5c0 16.4 13.3 29.7 29.7 29.7s29.7-13.3 29.7-29.7v-453.4c0-16.3-13.3-29.6-29.7-29.6z"  horiz-adv-x="1024" />

    
    <glyph glyph-name="gouwuche" unicode="&#58883;" d="M917.515719 657.066667H234.55323l-13.459911 77.198222c-4.5056 29.058844-37.341867 84.195556-123.904 84.878222C43.918564 819.575467 35.38523 819.734756 24.007452 819.791644v0.068267c-11.377778 0-23.995733-16.372622-24.018488-22.687289C-0.079303 780.322133 12.629675 775.873422 24.007452 774.656v-0.113778c11.377778-0.318578 10.103467-0.352711 13.334756-0.386844 10.205867-0.1024 31.084089-0.261689 62.350222-0.512 67.333689-0.534756 77.027556-41.961244 77.903645-46.603378L189.246919 657.066667h-0.546133l72.8064-436.929423C262.588075 167.788089 305.391275 122.311111 354.099541 122.311111h492.987734c52.451556 0 91.864178 52.724622 93.161244 100.818489l70.018845 349.184 0.443733 4.471467c0 48.0256-37.444267 80.2816-93.195378 80.2816zM895.203897 230.035911l-0.443733-4.482844c0-26.146133-21.265067-57.730844-47.672889-57.730845H354.099541c-26.953956 0-47.092622 28.683378-47.092622 54.317511L242.426652 611.555556h675.089067c17.396622 0 46.318933-4.312178 47.638756-32.733867L895.203897 230.035911zM405.163008 111.877689c-58.174578 0-105.506133-47.320178-105.506133-105.494756s47.331556-105.506133 105.506133-105.506133 105.506133 47.331556 105.506133 105.506133-47.331556 105.494756-105.506133 105.494756z m0-165.501156a60.051911 60.051911 0 0 0-59.995022 59.995023c0 33.0752 26.908444 59.983644 59.995022 59.983644s59.995022-26.908444 59.995022-59.983644a60.051911 60.051911 0 0 0-59.995022-59.995023zM785.46523 111.877689c-58.174578 0-105.494756-47.320178-105.494755-105.494756s47.320178-105.506133 105.494755-105.506133 105.506133 47.331556 105.506134 105.506133-47.331556 105.494756-105.506134 105.494756z m0-165.501156a60.051911 60.051911 0 0 0-59.983644 59.995023 60.051911 60.051911 0 0 0 59.983644 59.983644 60.051911 60.051911 0 0 0 59.995022-59.983644 60.051911 60.051911 0 0 0-59.995022-59.995023z"  horiz-adv-x="1025" />

    
    <glyph glyph-name="dunpai" unicode="&#58974;" d="M916.48 742.912C772.608 749.056 638.976 800.768 522.752 883.2L512 890.88l-10.752-7.68C385.024 800.768 251.392 749.056 107.52 742.912H86.016v-337.92c0-249.344 173.056-470.016 420.864-526.848l5.632-1.024 4.096 1.024C764.416-64.512 936.96 156.16 936.96 404.992v337.92h-20.48zM512 827.392c111.616-76.288 234.496-114.688 369.152-125.952v-324.608C849.92 8.704 515.072-66.56 509.44-67.584v1.024s-335.872 73.216-367.104 444.416V701.44c2.048 0 4.096 0.512 6.144 0.512C281.088 713.728 402.432 752.128 512 827.392zM264.704 399.872l172.544-178.688h1.024c6.144-11.776 18.432-19.968 32.768-19.968 14.336 0 26.624 8.192 32.768 19.968h0.512L763.392 496.64c9.728 5.632 15.872 15.872 15.872 27.648 0 17.408-14.336 31.744-31.744 31.744-12.8 0-24.064-7.68-29.184-18.944L471.04 274.432h-3.072L307.712 442.88c-5.12 10.24-15.872 16.896-28.16 16.896-17.408 0-31.744-14.336-31.744-31.744 0.512-12.288 7.168-22.528 16.896-28.16z"  horiz-adv-x="1024" />

    
    <glyph glyph-name="sousuo2" unicode="&#58994;" d="M1015.4-77.79999999999995c-11.5-11.5-30.1-11.5-41.6 0L703.3 192.70000000000005c-160.9-160.9-421.7-160.9-582.6 0-160.9 160.9-160.9 421.7 0 582.6 160.9 160.9 421.7 160.9 582.6 0 146.6-146.6 158.1-375.5 37.4-536.8l274.7-274.7c11.5-11.4 11.5-30.1 0-41.6zM661.7 733.7c-137.9 137.9-361.5 137.9-499.4 0-137.9-137.9-137.9-361.5 0-499.4 137.9-137.9 361.5-137.9 499.4 0 137.9 137.9 137.9 361.5 0 499.4z"  horiz-adv-x="1024" />

    
    <glyph glyph-name="gengduo" unicode="&#58987;" d="M299.52 13.653333l354.133333 354.133334-354.133333 354.133333c-12.8 12.8-12.8 34.133333 0 46.933333 12.8 12.8 34.133333 12.8 46.933333 0l371.2-371.2c17.066667-17.066667 17.066667-42.666667 0-59.733333l-371.2-371.2c-12.8-12.8-34.133333-12.8-46.933333 0-8.533333 12.8-8.533333 34.133333 0 46.933333z"  horiz-adv-x="1024" />

    
    <glyph glyph-name="yifu" unicode="&#58995;" d="M808.262 289.745a20.945 20.945 0 0 0-8.844-2.094v-264.146a23.273 23.273 0 0 0-23.273-23.272H239.71a23.273 23.273 0 0 0-23.273 23.272v256a20.48 20.48 0 0 0-6.981 3.259c-172.219 101.469-152.437 116.363-154.299 128a26.298 26.298 0 0 0 4.19 19.781c-5.353-6.749 135.214 241.339 186.181 295.564 38.4 42.356 150.11 41.658 160.117 41.426a23.273 23.273 0 0 0 21.876-17.222s11.404-76.335 77.964-76.335 99.607 76.102 99.607 77.033a23.273 23.273 0 0 0 21.876 16.29c40.96 0 139.637-6.981 165.702-42.123 34.211-45.149 184.786-271.36 177.106-313.25-1.862-10.706 15.592-38.633-161.513-122.183z m-50.967 405.877c-8.379 10.473-61.44 21.178-116.364 23.273a145.687 145.687 0 0 0-135.68-93.091c-79.826 0-103.098 58.181-116.364 93.09-34.909-1.396-94.952-9.309-111.243-26.763-53.295-55.156-178.27-284.858-171.52-274.618a1233.455 1233.455 0 0 1 111.243-85.411V442.647a23.273 23.273 0 0 0 44.684 0v-395.636h492.684V442.647a23.273 23.273 0 0 0 44.683 0v-105.192a576.698 576.698 0 0 1 124.277 83.549 2216.495 2216.495 0 0 1-166.4 274.618z m-72.379-602.298H331.404a23.273 23.273 0 0 0 0 46.545h353.512a23.273 23.273 0 0 0 0-46.545zM498.735 535.505c-88.437 0-151.506 79.826-153.135 84.248a23.273 23.273 0 0 0 12.335 30.254 21.644 21.644 0 0 0 28.16-11.869 156.393 156.393 0 0 1 112.174-55.156 188.276 188.276 0 0 1 136.844 53.993 23.273 23.273 0 0 0 27.462 14.661 23.273 23.273 0 0 0 13.73-29.556c-9.774-38.4-80.523-86.342-176.407-86.342z"  horiz-adv-x="1024" />

    
    <glyph glyph-name="youxi" unicode="&#58916;" d="M809.643-74.752H535.21c-194.56 0-354.304 159.744-354.304 354.304S340.65 633.856 535.21 633.856h96.256a18.355 18.355 0 0 1 18.432 18.432V855.04c0 12.288 8.192 20.48 20.48 20.48s20.48-8.192 20.48-20.48v-202.752c0-32.768-26.624-59.392-59.392-59.392H535.21c-172.032 0-313.344-141.312-313.344-313.344S363.179-33.792 535.21-33.792h274.432c172.032 0 313.344 141.312 313.344 313.344S981.675 592.896 809.643 592.896c-12.288 0-20.48 8.192-20.48 20.48s8.192 20.48 20.48 20.48c194.56 0 354.304-159.744 354.304-354.304S1006.25-74.752 809.643-74.752zM475.819 160.768c-65.536 0-118.784 53.248-118.784 118.784s53.248 118.784 118.784 118.784 118.784-53.248 118.784-118.784-53.248-118.784-118.784-118.784z m0 196.608c-43.008 0-77.824-34.816-77.824-77.824s34.816-77.824 77.824-77.824 77.824 34.816 77.824 77.824-34.816 77.824-77.824 77.824zM752.299 279.552a22.8 22.8 0 1 1 77.824 0 22.8 22.8 0 1 1-77.824 0zM875.179 279.552a22.8 22.8 0 1 1 77.824 0 22.8 22.8 0 1 1-77.824 0z"  horiz-adv-x="1366" />

    
    <glyph glyph-name="naozhong1" unicode="&#58905;" d="M259.9424 697.9584l-133.6576-133.9648c-44.544 44.6464 22.272 111.6416 22.272 111.6416 66.8416 66.9696 111.3856 22.3232 111.3856 22.3232z m341.7856 70.5024c-14.2848 4.096-42.0096 8.8832-89.728 8.832-48.0256 0-75.4432-5.4784-89.856-9.7024-8.576-2.5088-16.4096 0.2304-24.0384 9.9328-4.0448 5.1968-12.7744 16.0768-26.112 32.64C375.6032 816.7168 408.32 844.8 512 844.8c106.2912 0.4608 142.1824-34.6368 142.1824-34.6368A1367.2192 1367.2192 0 0 1 623.104 774.656c-4.3008-5.2736-11.776-8.96-21.4016-6.1952zM691.2 358.4v-51.2l-205.1328-0.2816V614.6048L537.6 614.4v-256h153.6z m179.1744-24.7296c0 197.6064-160.768 358.4-358.4 358.4s-358.4-160.7936-358.4-358.4c0-197.6576 160.768-358.4 358.4-358.4s358.4 160.7424 358.4 358.4z m-358.4 410.4448c225.8176 0 409.5488-184.1152 409.5488-410.4448C921.5232 107.3408 737.792-76.8 511.9744-76.8 286.1312-76.8 102.4 107.3408 102.4 333.6704S286.1312 744.1152 511.9744 744.1152z m363.4176-69.248c66.816-66.9952 22.272-111.6416 22.272-111.6416l-133.6576 133.9648c47.7696 54.2464 111.3856-22.3232 111.3856-22.3232z"  horiz-adv-x="1024" />

    
    <glyph glyph-name="caidan" unicode="&#58904;" d="M133.31 599.448h757.207c19.782 0 35.951 16.169 35.951 35.95 0 19.782-15.997 35.952-35.95 35.952H133.31c-19.782 0-35.951-16.17-35.951-35.951 0-19.782 16.17-35.951 35.95-35.951zM890.517 419.865H133.311c-19.782 0-35.951-16.17-35.951-35.951 0-19.782 16.17-35.951 35.95-35.951h757.207c19.782 0 35.951 16.17 35.951 35.951 0 19.782-16.17 35.95-35.95 35.95zM890.517 168.552H133.311c-19.782 0-35.951-15.997-35.951-35.95s16.17-35.952 35.95-35.952h757.207c19.782 0 35.951 15.998 35.951 35.951s-16.17 35.951-35.95 35.951z"  horiz-adv-x="1024" />

    


  </font>
</defs>
</svg>
