<?xml version="1.0" standalone="no"?><!DOCTYPE svg PUBLIC "-//W3C//DTD SVG 1.1//EN" "http://www.w3.org/Graphics/SVG/1.1/DTD/svg11.dtd"><svg t="1587824554355" class="icon" viewBox="0 0 1024 1024" version="1.1" xmlns="http://www.w3.org/2000/svg" p-id="2581" xmlns:xlink="http://www.w3.org/1999/xlink" width="200" height="200"><defs><style type="text/css"></style></defs><path d="M705.536 530.944L466.944 696.32c-10.752 7.168-25.088 4.608-32.256-6.144-2.56-4.096-4.096-8.704-4.096-13.312V347.136c0-12.8 10.24-23.04 23.04-23.552 4.608 0 9.216 1.536 13.312 4.096l238.592 164.864c10.752 7.168 13.312 22.016 5.632 32.256-1.536 2.56-3.072 4.608-5.632 6.144z" fill="#ff3838" p-id="2582"></path><path d="M512 0C229.376 0 0 229.376 0 512s228.864 512 512 512 512-228.864 512-512S794.624 0 512 0z m0 981.504c-258.56 0-468.992-210.432-468.992-469.504S253.44 43.008 512 43.008s468.992 210.432 468.992 468.992-210.432 469.504-468.992 469.504z" fill="#dbdbdb" p-id="2583"></path></svg>